<?xml version="1.0" standalone="no"?>
<!DOCTYPE svg PUBLIC "-//W3C//DTD SVG 20010904//EN"
 "http://www.w3.org/TR/2001/REC-SVG-20010904/DTD/svg10.dtd">
<svg version="1.0" xmlns="http://www.w3.org/2000/svg"
 width="16.000000pt" height="16.000000pt" viewBox="0 0 16.000000 16.000000"
 preserveAspectRatio="xMidYMid meet">
<metadata>
Created by potrace 1.11, written by Peter Selinger 2001-2013
</metadata>
<g transform="translate(0.000000,16.000000) scale(0.004000,-0.004000)"
fill="#000000" stroke="none">
<path d="M307 3692 l-307 -307 0 -45 c0 -43 4 -49 75 -120 l75 -75 47 48 47
47 -44 45 -45 45 248 247 247 248 45 -45 45 -44 45 44 45 44 -87 88 c-53 53
-96 88 -108 88 -13 0 -127 -106 -328 -308z"/>
<path d="M524 3394 l-200 -203 56 -56 55 -55 115 116 c132 132 156 148 215
141 49 -5 80 -26 120 -79 16 -21 32 -38 36 -38 5 0 35 16 69 36 l61 35 -33 41
c-43 55 -111 96 -170 104 l-49 7 21 21 c11 12 20 27 20 32 0 14 -93 104 -105
102 -6 0 -100 -93 -211 -204z"/>
<path d="M991 3128 c-66 -25 -157 -113 -191 -183 -65 -137 1 -308 150 -389 60
-33 149 -44 203 -27 l35 12 -32 57 -32 57 -49 0 c-62 1 -107 24 -140 72 -31
47 -33 105 -4 152 l21 34 151 -151 c84 -84 156 -152 160 -152 16 0 69 69 98
128 58 120 33 242 -72 336 -84 76 -191 95 -298 54z m188 -123 c38 -19 78 -68
86 -104 6 -29 -16 -101 -32 -101 -12 0 -198 188 -192 194 26 26 99 32 138 11z"/>
<path d="M1437 2512 c-191 -191 -347 -352 -347 -358 0 -6 21 -31 46 -54 l46
-43 354 354 354 354 -47 47 c-26 27 -50 48 -53 48 -3 0 -161 -156 -353 -348z"/>
<path d="M1781 2353 c-62 -22 -163 -125 -184 -188 -34 -98 -15 -183 59 -265
42 -46 91 -75 147 -85 20 -4 37 -11 37 -16 0 -14 -86 -59 -114 -59 -81 0 -186
107 -186 189 0 24 -5 32 -22 36 -123 28 -124 28 -113 -38 12 -72 46 -129 120
-203 79 -78 144 -115 217 -122 91 -9 120 11 347 231 113 110 207 203 209 206
1 4 -20 29 -48 56 -45 44 -53 48 -70 37 -26 -16 -30 -15 -30 6 0 35 -52 122
-96 161 -77 68 -178 87 -273 54z m189 -145 c55 -38 75 -73 75 -132 0 -42 -6
-60 -29 -90 -39 -52 -82 -76 -136 -76 -100 0 -173 86 -149 175 20 70 111 144
180 145 14 0 41 -10 59 -22z"/>
<path d="M2327 1860 c-141 -36 -267 -186 -267 -321 0 -141 136 -288 283 -305
49 -6 127 8 127 23 0 3 -14 31 -31 63 l-30 57 -49 -5 c-38 -3 -56 0 -84 17
-47 30 -76 79 -76 130 0 40 23 101 38 101 4 0 76 -69 160 -152 l153 -153 35
40 c57 65 86 132 92 207 4 58 1 75 -22 122 -62 127 -209 205 -329 176z m151
-150 c72 -44 94 -144 45 -199 -5 -6 -193 181 -193 192 0 12 41 26 80 26 19 1
50 -8 68 -19z"/>
<path d="M2837 1474 c-3 -16 -16 -90 -27 -164 -12 -74 -25 -139 -30 -143 -8
-9 -288 -57 -332 -57 -15 0 -28 -3 -28 -7 0 -4 27 -35 60 -68 l61 -61 110 24
c60 14 112 23 114 20 6 -5 -21 -151 -35 -193 -10 -27 -7 -33 52 -92 34 -35 66
-63 70 -63 4 0 8 13 8 28 0 45 48 324 57 333 5 5 78 20 161 33 84 13 156 27
160 30 4 4 -20 34 -53 65 l-61 59 -70 -18 c-38 -10 -83 -20 -99 -22 -28 -3
-30 -1 -27 27 2 16 12 61 22 99 l18 71 -63 64 -63 65 -5 -30z"/>
<path d="M3187 762 c-191 -191 -347 -352 -347 -357 0 -13 82 -95 95 -95 6 0
167 157 360 350 l350 350 -50 50 c-27 27 -52 50 -55 50 -3 0 -161 -156 -353
-348z"/>
<path d="M3727 842 c-20 -21 -37 -42 -37 -47 0 -5 19 -29 42 -52 l43 -43 -248
-247 -247 -248 -43 43 c-23 23 -47 42 -53 42 -13 0 -84 -73 -84 -86 0 -5 43
-52 95 -104 l95 -95 335 335 c184 184 335 340 335 345 0 10 -181 195 -191 195
-3 0 -22 -17 -42 -38z"/>
</g>
</svg>
